# xmcd
#
# Track frame offsets:
#	150
#	17417
#	28812
#	47140
#	64738
#	80379
#	95319
#	113825
#	129803
#	143355
#	159551
#	178563
#	194725
#	214494
#	228221
#	253374
#
# Disc length: 3393 seconds
#
# Revision: 1
# Processed by: cddbd v1.5.2PL0 Copyright (c) Steve Scherf et al.
# Submitted via: audiograbber 1.83.01
#
DISCID=d60d3f10
DTITLE=Various Artist - CB60264
DYEAR=1900
DGENRE=KARAOKE
TTITLE0=CRYSTAL GAYLE - EDDIE RABBITT - YOU AND I (DUET)
TTITLE1=LORETTA LYNN - CONWAY TWITTY - LOUISIANA WOMAN, MISSISSIPPI MAN (DUET)
TTITLE2=KENNY ROGERS - DOLLY PARTON - ISLANDS IN THE STREAM (DUET)
TTITLE3=TANYA TUCKER - DELBERT MCCLINTON - TELL ME ABOUT IT (DUET)
TTITLE4=REBA MCENTIRE - VINCE GILL - THE HEART WON'T LIE (DUET)
TTITLE5=GEORGE JONES - TAMMY WYNETTE - GOLDEN RING (DUET)
TTITLE6=CLINT BLACK - WYNONNA JUDD - A BAD GOODBYE (DUET)
TTITLE7=RICKY VAN SHELTON - DOLLY PARTON - ROCKIN' YEARS (DUET)
TTITLE8=KENNY ROGERS - DOTTIE WEST - EVERY TIME TWO FOOLS COLLIDE (DUET)
TTITLE9=KEITH WHITLEY - LORRIE MORGAN - TILL A TEAR BECOMES A ROSE (DUET)
TTITLE10=DAN SEALS - MARIE OSMOND - MEET ME IN MONTANA (DUET)
TTITLE11=DAVID FRIZZELL - SHELLY WEST - YOU'RE THE REASON GOD MADE OK (DUET)
TTITLE12=TRISHA YEARWOOD - JOE DIFFIE - WALK AWAY JOE (DUET)
TTITLE13=GEORGE JONES - TAMMY WYNETTE - WE'RE GONNA HOLD ON (DUET)
TTITLE14=JON RANDALL - LORRIE MORGAN - BY MY SIDE (DUET)
TTITLE15=DATA - DATA
EXTD=
EXTT0=
EXTT1=
EXTT2=
EXTT3=
EXTT4=
EXTT5=
EXTT6=
EXTT7=
EXTT8=
EXTT9=
EXTT10=
EXTT11=
EXTT12=
EXTT13=
EXTT14=
EXTT15=
PLAYORDER=
